<svg width="13" height="16" fill="none" xmlns="http://www.w3.org/2000/svg"><path d="M11.0962 11.3137 6.5 16l-4.5962-4.6863C.9948 10.3868.3757 9.2059.1248 7.9203a6.7482 6.7482 0 0 1 .37-3.8291c.492-1.211 1.325-2.246 2.394-2.9743C3.9578.3887 5.2144 0 6.5 0s2.5423.3887 3.6112 1.117c1.0689.7281 1.902 1.7632 2.394 2.9742a6.7479 6.7479 0 0 1 .3699 3.8291c-.2508 1.2856-.8698 2.4665-1.7789 3.3934ZM6.5 8.1001c.383 0 .7505-.1551 1.0214-.4313a1.4876 1.4876 0 0 0 .423-1.0414c0-.3906-.1521-.7652-.423-1.0414A1.4305 1.4305 0 0 0 6.5 5.1546c-.383 0-.7505.1552-1.0214.4314a1.4876 1.4876 0 0 0-.423 1.0414c0 .3906.1521.7652.423 1.0414A1.4305 1.4305 0 0 0 6.5 8.1Z" fill="#EC5118"/></svg>