<svg width="11" height="16" fill="none" xmlns="http://www.w3.org/2000/svg"><path d="M1.7955 16v-3.0476H0v-1.4566h1.7955V9.5014H0v-1.703h1.7955V0h3.88c1.8023 0 3.1369.3959 4.0037 1.1877C10.5597 1.9795 11 3.1297 11 4.6387c0 1.5238-.4747 2.719-1.424 3.5854-.9494.8515-2.3459 1.2773-4.1895 1.2773H3.6529v1.9944h3.4053v1.4566H3.6529V16H1.7955Zm1.8574-8.2017h1.4653c1.252 0 2.222-.224 2.91-.6723.7016-.4481 1.0525-1.2549 1.0525-2.4201 0-1.0159-.289-1.7703-.8668-2.2633-.5779-.493-1.479-.7395-2.7036-.7395H3.653v6.0952Z" fill="#FCFCFC"/></svg>