<svg width="9" height="13" fill="none" xmlns="http://www.w3.org/2000/svg"><path d="M1.469 13v-2.4762H0V9.3403h1.469V7.72H0V6.336h1.469V0h3.1745c1.4747 0 2.5666.3217 3.2758.965C8.6398 1.6083 9 2.543 9 3.769c0 1.238-.3884 2.209-1.1651 2.913C7.0582 7.374 5.9156 7.72 4.4071 7.72H2.9887v1.6204H5.775v1.1835H2.9887V13H1.469Zm1.5197-6.6639h1.199c1.0243 0 1.818-.182 2.3808-.5462.574-.3641.8611-1.0196.8611-1.9664 0-.8254-.2363-1.4384-.7092-1.839-.4727-.4005-1.21-.6007-2.212-.6007H2.9887V6.336Z" fill="#061B28"/></svg>